<?xml version="1.0" encoding="UTF-8"?>
<svg version="1.1" xmlns="http://www.w3.org/2000/svg" width="692" height="558">
<path d="M0 0 C228.36 0 456.72 0 692 0 C692 184.14 692 368.28 692 558 C463.64 558 235.28 558 0 558 C0 373.86 0 189.72 0 0 Z " fill="#FEFEFC" transform="translate(0,0)"/>
<path d="M0 0 C2.25508603 2.90529197 4.20199849 5.89097238 6.08203125 9.05078125 C6.67765869 10.04851563 7.27328613 11.04625 7.88696289 12.07421875 C8.52239014 13.14285156 9.15781738 14.21148437 9.8125 15.3125 C11.16090371 17.56934188 12.50987555 19.8258444 13.859375 22.08203125 C14.37383934 22.94267685 14.37383934 22.94267685 14.8986969 23.82070923 C18.43100063 29.72733714 21.99016643 35.61749602 25.5625 41.5 C26.12106689 42.42337158 26.67963379 43.34674316 27.25512695 44.2980957 C29.83290699 48.53780941 32.45833726 52.72412478 35.23046875 56.83984375 C37.25182044 59.8412347 39.09335397 62.8406462 40.75 66.0625 C43.66837956 71.53062171 46.9060671 76.75798599 50.22167969 81.99047852 C52.99302899 86.36620533 55.68294325 90.78380575 58.33935547 95.23022461 C60.16242563 98.27090838 62.00335518 101.30027282 63.84765625 104.328125 C70.48287602 115.22373858 77.10599951 126.12208539 83.5625 137.125 C88.92724279 146.26387012 94.46676367 155.28791347 100.04125977 164.30004883 C105.00487168 172.34051258 109.84689023 180.44561496 114.63330078 188.5925293 C117.92846801 194.19863985 121.28784483 199.75691117 124.71875 205.28125 C127.9951363 210.58998118 131.17340477 215.95850226 134.375 221.3125 C139.02893166 229.0906412 143.72521003 236.83443163 148.55834961 244.50244141 C159.90514286 262.52987776 159.90514286 262.52987776 162.1792345 267.66048717 C163.84134054 270.32039841 163.84134054 270.32039841 167.11780071 270.63085651 C168.41291986 270.63362189 169.708039 270.63638727 171.04240417 270.63923645 C171.76367266 270.64759213 172.48494115 270.6559478 173.22806627 270.66455668 C175.65147371 270.68655164 178.07337513 270.67286115 180.49682617 270.65942383 C182.23124852 270.66787334 183.96566138 270.67851574 185.70005798 270.69119263 C190.41473757 270.71941325 195.12896336 270.7168543 199.84370208 270.70889878 C204.76853554 270.70578028 209.69322279 270.73078877 214.61799622 270.75285339 C223.94648805 270.79035408 233.27483409 270.80244494 242.60339385 270.8054778 C253.22243705 270.8101621 263.8413336 270.84306522 274.46031225 270.87837565 C296.30685813 270.95038608 318.15334464 270.98683904 340 271 C339.03991106 272.7704865 338.07858382 274.54030154 337.11672974 276.30982971 C336.58152269 277.29546685 336.04631565 278.28110399 335.49489021 279.29660892 C333.95557541 282.08033836 332.32263645 284.75808089 330.5546875 287.40234375 C329.66052124 288.75235474 329.66052124 288.75235474 328.74829102 290.12963867 C328.13010498 291.05623291 327.51191895 291.98282715 326.875 292.9375 C321.39033109 301.24273966 316.14018612 309.64470446 311.07006836 318.20825195 C307.92839584 323.49951797 304.71911522 328.69661031 301.07545948 333.66301155 C299.37606162 336.3953564 298.42517619 338.46321636 297.39557171 341.43939018 C295.25286799 346.91419667 292.82240012 351.46953912 288 355 C278.18578534 358.27289286 267.02055769 357.3200913 256.7950598 357.08918118 C252.45916941 357.011126 248.12373399 357.03777494 243.78733826 357.05142212 C236.28291735 357.06084149 228.78132254 357.00458452 221.27761269 356.90314102 C210.42915161 356.75657528 199.58205095 356.70994864 188.73270717 356.68735717 C171.12938043 356.64800366 153.52755876 356.52833366 135.92504883 356.35791016 C118.83039865 356.19257619 101.73615789 356.06522104 84.64086914 355.98876953 C83.58636266 355.98404051 82.53185619 355.97931149 81.44539497 355.97443916 C76.1550133 355.95094774 70.86462873 355.92820117 65.57424223 355.9058249 C21.71511921 355.71935491 -22.14236257 355.40243654 -66 355 C-64.39978627 351.74752584 -62.62834302 348.67780801 -60.7265625 345.58984375 C-60.07236328 344.52660889 -59.41816406 343.46337402 -58.74414062 342.36791992 C-58.03786677 341.22438092 -57.33148422 340.08090905 -56.625 338.9375 C-55.90036832 337.7621394 -55.17575913 336.58676494 -54.45117188 335.41137695 C-49.68857872 327.69394687 -44.8757906 320.00923646 -40.01806641 312.35131836 C-37.31335 308.08654526 -34.63719514 303.80705846 -32 299.5 C-28.58814127 293.92873701 -25.1138644 288.39834471 -21.625 282.875 C-21.10035156 282.04419922 -20.57570313 281.21339844 -20.03515625 280.35742188 C-18.0497458 277.21860718 -16.06030223 274.09045335 -14 271 C-11.36776733 270.63923645 -11.36776733 270.63923645 -7.98974609 270.65942383 C-6.72858978 270.65965042 -5.46743347 270.65987701 -4.1680603 270.66011047 C-2.78651579 270.67543156 -1.40497487 270.69107956 -0.0234375 270.70703125 C1.38617503 270.71262567 2.79579338 270.7168965 4.20541382 270.71989441 C7.91768464 270.73135546 11.629604 270.76083296 15.34173584 270.79400635 C19.12881719 270.8246804 22.91595526 270.83839401 26.703125 270.85351562 C34.135577 270.88570189 41.56773928 270.9369129 49 271 C44.09544004 262.39740024 39.1733196 253.80586818 34.1875 245.25 C33.59001953 244.22430908 32.99253906 243.19861816 32.37695312 242.1418457 C28.21697436 235.02413975 23.95467716 227.97683897 19.6262207 220.96069336 C16.77348599 216.31919958 14.09913419 211.61717492 11.54296875 206.8046875 C9.14517954 202.44617446 6.56010053 198.2020963 3.98193359 193.94848633 C1.08102506 189.16205012 1.08102506 189.16205012 0 187 C-3.76380717 191.38519043 -6.58523866 196.16175754 -9.5 201.125 C-13.4684067 207.81323047 -17.50392448 214.44424968 -21.6875 221 C-26.68808883 228.85377765 -31.55119924 236.78698343 -36.375 244.75 C-36.73720642 245.34779266 -37.09941284 245.94558533 -37.47259521 246.56149292 C-39.64034991 250.14003061 -41.80618226 253.71972897 -43.97149658 257.29974365 C-51.41371259 269.60274117 -58.88363178 281.87845724 -66.6027832 294.01000977 C-70.16036668 299.62011353 -73.60079424 305.29275283 -77 311 C-81.80658337 319.06599662 -86.76261214 327.02381576 -91.796875 334.94921875 C-100.44193607 348.55949526 -108.96644472 362.24660651 -117.34423828 376.02294922 C-120.31788572 380.90669326 -123.35382192 385.74515248 -126.46484375 390.54296875 C-128.4002753 393.64064418 -130.18780281 396.82865492 -132 400 C-168.96 400 -205.92 400 -244 400 C-243.13811865 396.55247462 -242.44731003 394.8235224 -240.62109375 391.9296875 C-240.1202124 391.12901855 -239.61933105 390.32834961 -239.10327148 389.50341797 C-238.55356689 388.63604004 -238.0038623 387.76866211 -237.4375 386.875 C-236.2494429 384.97951573 -235.06196968 383.08366541 -233.875 381.1875 C-233.24464844 380.18332031 -232.61429688 379.17914063 -231.96484375 378.14453125 C-228.58902929 372.74188585 -225.26740743 367.30601075 -221.9375 361.875 C-217.26002121 354.25804297 -212.5466424 346.66747138 -207.75 339.125 C-203.20965161 331.98461 -198.83387524 324.75702711 -194.50341797 317.48779297 C-189.62241952 309.31773778 -184.5372384 301.28284655 -179.43164062 293.25195312 C-171.20526056 280.31542021 -171.20526056 280.31542021 -163.65234375 266.98046875 C-160.21678106 260.78346087 -156.42714885 254.7916362 -152.70556641 248.76367188 C-150.80435907 245.68298664 -148.90777661 242.59948213 -147.01171875 239.515625 C-144.30744103 235.11759515 -141.60181309 230.72040017 -138.89453125 226.32421875 C-138.25475342 225.28515381 -137.61497559 224.24608887 -136.95581055 223.17553711 C-135.62968161 221.02237781 -134.30300384 218.86955646 -132.97583008 216.71704102 C-129.21947073 210.6211432 -125.48470937 204.513001 -121.77490234 198.38867188 C-116.58723969 189.82688362 -111.3561306 181.30974006 -105.8671875 172.9375 C-104.1952696 170.30720238 -102.63104411 167.63762079 -101.09863281 164.92431641 C-98.93957597 161.14260839 -96.68094815 157.41953684 -94.4375 153.6875 C-93.9130127 152.81448242 -93.38852539 151.94146484 -92.84814453 151.04199219 C-86.05124064 139.74308377 -79.19748543 128.48061335 -72.1875 117.3125 C-65.68153015 106.94243346 -59.34950957 96.46629329 -53 86 C-52.28045164 84.81411823 -51.56088739 83.62824611 -50.84130859 82.44238281 C-50.47443436 81.83777222 -50.10756012 81.23316162 -49.72956848 80.61022949 C-48.60242658 78.75279926 -47.47516788 76.89543995 -46.34790039 75.03808594 C-44.91026066 72.66932551 -43.47330022 70.30015522 -42.03686523 67.93066406 C-36.15589821 58.23637357 -30.21544239 48.58001007 -24.25 38.9375 C-21.83956794 35.02766532 -19.45945347 31.102666 -17.109375 27.15625 C-11.62222592 17.9435698 -6.09894318 8.82552954 0 0 Z " fill="#020202" transform="translate(339,29)"/>
<path d="M0 0 C51.81 0 103.62 0 157 0 C165.06726074 16.13452148 165.06726074 16.13452148 168.69970703 23.50097656 C172.93200859 32.05471986 177.39340472 40.4474365 182.03662109 48.78466797 C185.14041969 54.37677169 188.05480851 60.03051233 190.8671875 65.7734375 C194.27618918 72.67425062 198.00531583 79.39620641 201.71411133 86.13916016 C204.76094071 91.69038546 207.67340306 97.27849567 210.453125 102.96875 C212.4881058 106.95649016 214.68164617 110.84769896 216.875 114.75 C221.53040335 123.03429378 225.8348296 131.46023722 230 140 C221.6936087 138.93883107 214.08326042 136.48446807 206.21020508 133.76928711 C201.09141232 132.0184781 195.94639111 130.35984367 190.7890625 128.7265625 C189.84049881 128.4254808 188.89193512 128.12439911 187.91462708 127.81419373 C178.46720295 124.82109154 169.00383743 121.87976723 159.53781128 118.94613647 C143.66870077 114.02648964 127.811915 109.07528819 112.00195312 103.96826172 C108.57033294 102.8614135 105.13682664 101.76052995 101.703125 100.66015625 C99.19790294 99.85681364 96.69269436 99.05342898 94.1875 98.25 C93.04788818 97.88479248 91.90827637 97.51958496 90.73413086 97.14331055 C87.48778006 96.10054912 84.24375085 95.05081706 81 94 C79.93467041 93.6596875 78.86934082 93.319375 77.77172852 92.96875 C72.14233324 91.14276292 66.8382828 89.18363518 61.5625 86.5 C59.86287109 85.64921875 59.86287109 85.64921875 58.12890625 84.78125 C53.01083347 81.86759059 49.33695902 78.4869949 45.625 73.9375 C44.56152344 72.65166016 44.56152344 72.65166016 43.4765625 71.33984375 C37.21403932 63.19843268 32.18851757 54.06995642 26.89099121 45.28723145 C20.54458041 34.77021949 14.11494602 24.31394977 7.515625 13.953125 C7.10248047 13.30279297 6.68933594 12.65246094 6.26367188 11.98242188 C5.36925305 10.57927642 4.46891812 9.17989396 3.56445312 7.78320312 C3.10490234 7.06583984 2.64535156 6.34847656 2.171875 5.609375 C1.75518555 4.96452148 1.33849609 4.31966797 0.90917969 3.65527344 C0 2 0 2 0 0 Z " fill="#861512" transform="translate(411,411)"/>
<path d="M0 0 C0.66 0 1.32 0 2 0 C1.34 1.65 0.68 3.3 0 5 C-116.82 5 -233.64 5 -354 5 C-353.67 4.01 -353.34 3.02 -353 2 C-352.34 2.33 -351.68 2.66 -351 3 C-349.10320049 3.09964703 -347.20285117 3.13389966 -345.303442 3.1386652 C-343.47391127 3.14687687 -343.47391127 3.14687687 -341.60742033 3.15525442 C-340.24164739 3.15633076 -338.87587438 3.15731543 -337.51010132 3.15821838 C-336.06881847 3.16278134 -334.62753695 3.16778097 -333.186257 3.17318195 C-329.21162935 3.18680281 -325.23701027 3.1941928 -321.26236534 3.20060861 C-316.98150496 3.20859527 -312.70066255 3.22229898 -308.41981506 3.23532104 C-300.99827002 3.25710847 -293.57672317 3.27524465 -286.15516281 3.29092598 C-275.42473021 3.31360401 -264.69431748 3.34174967 -253.96390171 3.37124526 C-236.55602136 3.41894656 -219.1481329 3.46220385 -201.74023438 3.50268555 C-184.82649097 3.54202757 -167.91275478 3.58345068 -150.99902344 3.62768555 C-149.43611942 3.63177196 -149.43611942 3.63177196 -147.84164159 3.63594092 C-142.6147419 3.64962018 -137.38784232 3.6633405 -132.16094279 3.67708123 C-88.7739769 3.79108586 -45.3869954 3.89788638 -2 4 C-1.34 2.68 -0.68 1.36 0 0 Z " fill="#232323" transform="translate(627,379)"/>
<path d="M0 0 C1.64842209 0.09499589 3.30068635 0.12630217 4.95184326 0.12698364 C5.99981079 0.12980347 7.04777832 0.13262329 8.12750244 0.13552856 C9.28264343 0.13350433 10.43778442 0.1314801 11.62792969 0.12939453 C12.84134033 0.13114685 14.05475098 0.13289917 15.30493164 0.13470459 C18.64504851 0.1383629 21.98510377 0.13748698 25.32521725 0.1343255 C28.83833333 0.13179035 32.3514468 0.13414372 35.86456299 0.13571167 C41.78634104 0.13753478 47.70810665 0.13512837 53.62988281 0.13037109 C60.41981421 0.12497839 67.20971534 0.12665372 73.99964595 0.1321975 C79.85815838 0.13678524 85.71666187 0.13735043 91.57517552 0.13475883 C95.06011906 0.13322027 98.54504858 0.13293311 102.02999115 0.13629532 C115.85765149 0.14807192 129.64603198 0.14280064 143.4466362 -0.82681084 C144.27339481 -0.87776972 145.10015343 -0.9287286 145.95196533 -0.98123169 C146.66649494 -1.03275454 147.38102455 -1.08427738 148.11720657 -1.13736153 C150 -1 150 -1 153 1 C153 1.66 153 2.32 153 3 C153.66 3 154.32 3 155 3 C157.28521123 6.19929572 158.68031589 9.05722928 159 13 C158.34 13.66 157.68 14.32 157 15 C156.15930585 13.39967863 155.32768495 11.79458829 154.5 10.1875 C154.0359375 9.29417969 153.571875 8.40085937 153.09375 7.48046875 C152 5 152 5 152 2 C100.19 2 48.38 2 -5 2 C-3.35 4.64 -1.7 7.28 0 10 C-0.33 10.99 -0.66 11.98 -1 13 C-2.32 11.68 -3.64 10.36 -5 9 C-5.99 9.495 -5.99 9.495 -7 10 C-6.67 8.68 -6.34 7.36 -6 6 C-6.66 6 -7.32 6 -8 6 C-7.67 4.02 -7.34 2.04 -7 0 C-2.25 -1.125 -2.25 -1.125 0 0 Z " fill="#FDEFEA" transform="translate(416,409)"/>
<path d="M0 0 C50.16 0 100.32 0 152 0 C152 0.33 152 0.66 152 1 C102.83 1 53.66 1 3 1 C3.33 2.32 3.66 3.64 4 5 C3.01 5.495 3.01 5.495 2 6 C1.34 4.02 0.68 2.04 0 0 Z " fill="#6C1314" transform="translate(412,412)"/>
<path d="M0 0 C18.37710384 5.53254948 36.73637056 11.10094536 55 17 C54.360625 17.12375 53.72125 17.2475 53.0625 17.375 C52.381875 17.58125 51.70125 17.7875 51 18 C50.67 18.66 50.34 19.32 50 20 C49.01 20 48.02 20 47 20 C47 19.34 47 18.68 47 18 C46.44699219 17.86464844 45.89398437 17.72929688 45.32421875 17.58984375 C42.80825278 16.9513381 40.30881419 16.27415235 37.8125 15.5625 C36.93207031 15.31628906 36.05164063 15.07007813 35.14453125 14.81640625 C33 14 33 14 32 12 C30.0045504 11.7055894 28.00668332 11.41909545 26 11.21484375 C22.82643187 10.87393311 20.02116554 10.00705518 17 9 C16.29875 8.855625 15.5975 8.71125 14.875 8.5625 C14.25625 8.376875 13.6375 8.19125 13 8 C12.67 7.34 12.34 6.68 12 6 C8.63471927 5.46582846 5.40372484 5 2 5 C1.34 3.35 0.68 1.7 0 0 Z " fill="#F3D8D3" transform="translate(551,523)"/>
<path d="M0 0 C3.83297185 0.43329247 7.40904379 1.73779009 11.0625 2.9375 C15.43975605 4.31589101 19.64631527 5.34874483 24.1875 6 C29.86631276 6.83178349 34.79344285 8.62710006 40 11 C40 11.66 40 12.32 40 13 C36.3831705 14.2934322 34.19120813 13.68756361 30.59765625 12.48828125 C29.54763428 12.14410156 28.4976123 11.79992187 27.41577148 11.4453125 C26.30919189 11.07148437 25.2026123 10.69765625 24.0625 10.3125 C21.80484418 9.56853477 19.54703303 8.82504074 17.2890625 8.08203125 C16.2052832 7.72189941 15.12150391 7.36176758 14.00488281 6.99072266 C8.69640389 5.24049455 3.35044946 3.61683562 -2 2 C-1.34 1.34 -0.68 0.68 0 0 Z " fill="#732221" transform="translate(563,525)"/>
<path d="M0 0 C4.87352813 3.8988225 4.87352813 3.8988225 5.2265625 6.97265625 C5.19304688 7.66230469 5.15953125 8.35195313 5.125 9.0625 C4.64677403 12.92265477 4.64677403 12.92265477 6.5 15.5 C7.2425 16.2425 7.2425 16.2425 8 17 C8.99 16.67 9.98 16.34 11 16 C11.99 16.66 12.98 17.32 14 18 C13.34 18.33 12.68 18.66 12 19 C12.33 20.65 12.66 22.3 13 24 C12.34 24 11.68 24 11 24 C11.33 25.32 11.66 26.64 12 28 C9 27 9 27 7.09765625 23.68359375 C6.40908567 22.27315615 5.73111319 20.85750707 5.0625 19.4375 C4.72798828 18.74591797 4.39347656 18.05433594 4.04882812 17.34179688 C3.37184105 15.94216848 2.69948697 14.54028988 2.03173828 13.13623047 C0.97022479 10.93834995 -0.13947638 8.7691015 -1.25390625 6.59765625 C-3 3 -3 3 -3 1 C-2.01 0.67 -1.02 0.34 0 0 Z " fill="#F8EDEA" transform="translate(578,424)"/>
<path d="M0 0 C2.9555754 2.57976714 4.52442197 5.53675692 6.35546875 8.98046875 C6.97744141 10.14384766 7.59941406 11.30722656 8.24023438 12.50585938 C8.88944026 13.73301085 9.5385273 14.96022519 10.1875 16.1875 C10.84781134 17.42669669 11.50861332 18.66563207 12.16992188 19.90429688 C13.7847965 22.93366022 15.39460038 25.96560785 17 29 C13.1280483 30.29065057 10.55767399 29.22324098 6.8125 28.0625 C6.15830078 27.86720703 5.50410156 27.67191406 4.83007812 27.47070312 C3.21772593 26.98817437 1.60853711 26.49509795 0 26 C3.33311475 24.2175082 6.24480943 23.51207144 10 23 C9.67 21.02 9.34 19.04 9 17 C8.34 17 7.68 17 7 17 C0 4.93103448 0 4.93103448 0 0 Z " fill="#6E2525" transform="translate(624,521)"/>
<path d="M0 0 C2.09595186 2.6822268 3.8276147 5.35913878 5.41015625 8.37109375 C6.05887695 9.60375977 6.05887695 9.60375977 6.72070312 10.86132812 C7.16349609 11.71146484 7.60628906 12.56160156 8.0625 13.4375 C8.50916016 14.28376953 8.95582031 15.13003906 9.41601562 16.00195312 C11.47770737 19.93734978 13.47928425 23.81588378 15 28 C13.68 28 12.36 28 11 28 C10.34 26.02 9.68 24.04 9 22 C8.34 22.33 7.68 22.66 7 23 C4.9375 20.875 4.9375 20.875 3 18 C3.165 17.071875 3.33 16.14375 3.5 15.1875 C4.1393041 11.11193639 2.95514124 9.38189945 0.91015625 5.9296875 C0 4 0 4 0 0 Z " fill="#792324" transform="translate(574,425)"/>
<path d="M0 0 C2.72881515 3.44105307 4.93962823 7.13911573 7.125 10.9375 C7.48464844 11.54529297 7.84429688 12.15308594 8.21484375 12.77929688 C10.16444793 16.16372211 11.51289075 19.11050645 12 23 C10.35 23 8.7 23 7 23 C6 20 6 20 6 16 C5.67 15.01 5.34 14.02 5 13 C4.34 13 3.68 13 3 13 C2.67 11.02 2.34 9.04 2 7 C1.01 7 0.02 7 -1 7 C-1.625 4.625 -1.625 4.625 -2 2 C-1.34 1.34 -0.68 0.68 0 0 Z " fill="#79201F" transform="translate(611,496)"/>
<path d="M0 0 C1.65 0 3.3 0 5 0 C5 0.66 5 1.32 5 2 C6.81181405 2.19401633 8.62448532 2.38004375 10.4375 2.5625 C11.44683594 2.66691406 12.45617187 2.77132813 13.49609375 2.87890625 C14.73552734 2.93884766 14.73552734 2.93884766 16 3 C16.33 2.67 16.66 2.34 17 2 C18.66617115 1.95936168 20.33388095 1.957279 22 2 C22.66 3.65 23.32 5.3 24 7 C17.67808976 8.5364005 13.88732722 7.21287126 8.0625 4.5625 C7.28326172 4.22412109 6.50402344 3.88574219 5.70117188 3.53710938 C3.79415883 2.70644725 1.89610312 1.85527261 0 1 C0 0.67 0 0.34 0 0 Z " fill="#761718" transform="translate(471,496)"/>
<path d="M0 0 C8.38472237 1.79672622 16.68756669 3.89894324 25 6 C24.67 4.68 24.34 3.36 24 2 C25.32 2 26.64 2 28 2 C29.125 5.75 29.125 5.75 28 8 C21.45937843 9.63515539 16.98265098 8.12899107 10.9375 5.5 C6.90072724 3.72410135 6.90072724 3.72410135 2.69140625 2.46875 C2.13324219 2.3140625 1.57507813 2.159375 1 2 C0.67 1.34 0.34 0.68 0 0 Z " fill="#FAE8E5" transform="translate(615,544)"/>
<path d="M0 0 C3.77329449 1.11685589 7.54316157 2.24487117 11.3125 3.375 C12.9202832 3.85066406 12.9202832 3.85066406 14.56054688 4.3359375 C15.58857422 4.6453125 16.61660156 4.9546875 17.67578125 5.2734375 C18.62364502 5.55622559 19.57150879 5.83901367 20.5480957 6.13037109 C23 7 23 7 26 9 C25.67 9.66 25.34 10.32 25 11 C23.35 11 21.7 11 20 11 C20 10.34 20 9.68 20 9 C18.576875 9.0928125 18.576875 9.0928125 17.125 9.1875 C16.09375 9.125625 15.0625 9.06375 14 9 C13.34 8.01 12.68 7.02 12 6 C10.1049887 5.42141951 10.1049887 5.42141951 8 5.3125 C6.948125 5.21388672 6.948125 5.21388672 5.875 5.11328125 C4.58513348 5.03535181 3.29221849 5 2 5 C1.34 3.35 0.68 1.7 0 0 Z " fill="#F8E5E3" transform="translate(551,523)"/>
<path d="M0 0 C1.79398884 0.25499841 3.58520875 0.52953814 5.375 0.8125 C6.87160156 1.03873047 6.87160156 1.03873047 8.3984375 1.26953125 C11 2 11 2 13 5 C13.804375 5 14.60875 5 15.4375 5 C18 5 18 5 19.8125 6.5 C20.204375 6.995 20.59625 7.49 21 8 C17.60738958 9.13087014 16.83482243 8.86514295 13.55078125 7.78515625 C12.70322266 7.51123047 11.85566406 7.23730469 10.98242188 6.95507812 C10.10134766 6.66052734 9.22027344 6.36597656 8.3125 6.0625 C7.41982422 5.77181641 6.52714844 5.48113281 5.60742188 5.18164062 C3.40223052 4.46230013 1.20006742 3.73483328 -1 3 C-0.67 2.01 -0.34 1.02 0 0 Z " fill="#772526" transform="translate(604,537)"/>
<path d="M0 0 C1.13579093 4.01488886 1.09468587 6.91317276 0 11 C-2.75 13.125 -2.75 13.125 -6 15 C-7.70328319 16.6292274 -9.38161281 18.28641357 -11 20 C-9.36047417 15.3606824 -6.93128948 11.36144142 -4.375 7.1875 C-3.95476562 6.49462891 -3.53453125 5.80175781 -3.1015625 5.08789062 C-2.0710533 3.38989252 -1.03598319 1.69466386 0 0 Z " fill="#ECECEA" transform="translate(231,388)"/>
<path d="M0 0 C0 0.33 0 0.66 0 1 C-6.72147407 1.28602017 -13.29748376 0.80167749 -19 -3 C-21.04869074 -3.44429438 -23.11454293 -3.81294195 -25.1875 -4.125 C-26.81751953 -4.37636719 -26.81751953 -4.37636719 -28.48046875 -4.6328125 C-29.72763672 -4.81457031 -29.72763672 -4.81457031 -31 -5 C-31 -5.33 -31 -5.66 -31 -6 C-20.77592713 -8.47096682 -9.69635147 -3.15191574 0 0 Z " fill="#F7E4E1" transform="translate(543,520)"/>
<path d="M0 0 C1.796875 0.12109375 1.796875 0.12109375 4 1 C5.703125 3.72265625 5.703125 3.72265625 7.25 7.0625 C7.77078125 8.16722656 8.2915625 9.27195313 8.828125 10.41015625 C9.21484375 11.26480469 9.6015625 12.11945313 10 13 C8.6875 14.5 8.6875 14.5 7 16 C6.01 16 5.02 16 4 16 C4.33 15.38125 4.66 14.7625 5 14.125 C6.14193235 12.08981656 6.14193235 12.08981656 6 10 C5.34 10 4.68 10 4 10 C4 9.01 4 8.02 4 7 C3.34 7.66 2.68 8.32 2 9 C0.50178941 5.62902617 0 3.79557881 0 0 Z " fill="#131313" transform="translate(420,167)"/>
<path d="M0 0 C2.875 0.6875 2.875 0.6875 6 2 C7.25 4.375 7.25 4.375 8 7 C9.19750618 9.94770752 10.28184026 11.27512978 12.625 13.5625 C15 16 15 16 15 19 C9.00565538 13.18195963 3.93227734 7.41083038 0 0 Z " fill="#722222" transform="translate(448,472)"/>
<path d="M0 0 C0.99 0.33 1.98 0.66 3 1 C-0.3 6.28 -3.6 11.56 -7 17 C-7.99 16.34 -8.98 15.68 -10 15 C-9.34 15 -8.68 15 -8 15 C-7.71125 13.9275 -7.4225 12.855 -7.125 11.75 C-6.27179891 8.90599636 -5.4363497 6.56491017 -4 4 C-3.34 4 -2.68 4 -2 4 C-1.34 2.68 -0.68 1.36 0 0 Z " fill="#181818" transform="translate(218,405)"/>
<path d="M0 0 C1.1725131 0.95117134 2.33787015 1.91117009 3.5 2.875 C4.47453125 3.67550781 4.47453125 3.67550781 5.46875 4.4921875 C6.22671875 5.23855469 6.22671875 5.23855469 7 6 C7 6.66 7 7.32 7 8 C8.32 8.66 9.64 9.32 11 10 C10.34 10.66 9.68 11.32 9 12 C6.5 11.875 6.5 11.875 4 11 C2.8125 9.1875 2.8125 9.1875 2 7 C0.81376393 4.47924835 -0.00449854 2.99550146 -2 1 C-1.34 0.67 -0.68 0.34 0 0 Z " fill="#F4E2E1" transform="translate(454,482)"/>
<path d="M0 0 C0.66 0.33 1.32 0.66 2 1 C2.144375 1.61875 2.28875 2.2375 2.4375 2.875 C2.81776693 5.05089546 2.81776693 5.05089546 4.36328125 6.3203125 C6.3569675 8.36633896 7.46188554 10.45407966 8.75 13 C9.19859375 13.86625 9.6471875 14.7325 10.109375 15.625 C11 18 11 18 10 21 C6.89280655 17.27528861 4.92713702 13.0786964 2.8125 8.75 C2.44447266 8.00492187 2.07644531 7.25984375 1.69726562 6.4921875 C0.7945242 4.66325683 -0.1032362 2.83186904 -1 1 C-0.67 0.67 -0.34 0.34 0 0 Z " fill="#F7DFDB" transform="translate(606,483)"/>
<path d="M0 0 C2.41698551 1.12431913 4.8335972 2.24942975 7.25 3.375 C8.27287109 3.85066406 8.27287109 3.85066406 9.31640625 4.3359375 C12.56574713 5.85019344 15.80638484 7.37026855 19 9 C18.01 9.495 18.01 9.495 17 10 C14.92489412 9.29067506 12.97153842 8.39652478 10.97265625 7.49609375 C9.99619141 7.25052734 9.99619141 7.25052734 9 7 C8.01 7.66 7.02 8.32 6 9 C4.99406757 7.8803014 3.9954151 6.7540588 3 5.625 C2.443125 4.99851562 1.88625 4.37203125 1.3125 3.7265625 C0 2 0 2 0 0 Z " fill="#F1DBD8" transform="translate(467,494)"/>
<path d="M0 0 C2.69275116 1.30557632 4.80190302 3.05337483 7.0625 5 C5.46023045 5.22245393 3.85553233 5.42746669 2.25 5.625 C1.35667969 5.74101563 0.46335937 5.85703125 -0.45703125 5.9765625 C-2.9375 6 -2.9375 6 -5.9375 4 C-2.54356061 0 -2.54356061 0 0 0 Z " fill="#811B1A" transform="translate(560.9375,520)"/>
<path d="M0 0 C2.41703442 3.01594561 4.16333415 6.06931009 5.8125 9.5625 C6.50279297 10.98755859 6.50279297 10.98755859 7.20703125 12.44140625 C7.46871094 13.28574219 7.73039063 14.13007813 8 15 C7.01 16.485 7.01 16.485 6 18 C4.35 14.04 2.7 10.08 1 6 C0.01 6 -0.98 6 -2 6 C-1.34 4.02 -0.68 2.04 0 0 Z " fill="#74241E" transform="translate(599,473)"/>
<path d="M0 0 C4.71403788 0.47939368 8.66579301 0.96834048 13 3 C13 3.33 13 3.66 13 4 C11.3603125 4.2165625 11.3603125 4.2165625 9.6875 4.4375 C6.06877013 4.88288104 6.06877013 4.88288104 3 6 C2.01 4.02 1.02 2.04 0 0 Z " fill="#F5E9E3" transform="translate(488,504)"/>
<path d="M0 0 C0.99 0 1.98 0 3 0 C3.66 1.32 4.32 2.64 5 4 C5.66 3.67 6.32 3.34 7 3 C7.144375 4.11375 7.28875 5.2275 7.4375 6.375 C7.78372035 9.82142047 7.78372035 9.82142047 9 12 C8.01 12.33 7.02 12.66 6 13 C4.02 8.71 2.04 4.42 0 0 Z " fill="#F6EBE9" transform="translate(589,453)"/>
<path d="M0 0 C-1.2491742 3.45925163 -2.67527795 6.14693203 -5 9 C-5.99 8.67 -6.98 8.34 -8 8 C-7.32253522 3.25774652 -4.9532836 0 0 0 Z " fill="#ECECEA" transform="translate(217,228)"/>
<path d="M0 0 C7 8.44827586 7 8.44827586 7 12 C6.01 12.33 5.02 12.66 4 13 C3.34 10.69 2.68 8.38 2 6 C1.34 6 0.68 6 0 6 C-1.125 2.25 -1.125 2.25 0 0 Z " fill="#F3DDDA" transform="translate(433,448)"/>
<path d="M0 0 C2.74277578 3.19990508 4.6302836 6.00499382 6 10 C5.34 10 4.68 10 4 10 C3.67 10.99 3.34 11.98 3 13 C1.4375 11.875 1.4375 11.875 0 10 C0.28674418 7.99279077 0.61866701 5.9914056 1 4 C0.34 3.34 -0.32 2.68 -1 2 C-0.67 1.34 -0.34 0.68 0 0 Z " fill="#F8ECEA" transform="translate(416,421)"/>
<path d="M0 0 C1.33895632 1.66215268 2.67130142 3.32963607 4 5 C4.61875 5.66 5.2375 6.32 5.875 7 C6.431875 7.99 6.431875 7.99 7 9 C6.1875 11.75 6.1875 11.75 5 14 C1.25928898 10.25928898 0.72662654 5.08638579 0 0 Z " fill="#F5E2DF" transform="translate(424,434)"/>
<path d="M0 0 C2 3 2 3 2 5.4375 C0.59221815 9.044941 -1.7183981 10.11482444 -5 12 C-5.33 11.34 -5.66 10.68 -6 10 C-4.78515625 7.6171875 -4.78515625 7.6171875 -3.0625 4.875 C-2.21365234 3.50988281 -2.21365234 3.50988281 -1.34765625 2.1171875 C-0.90292969 1.41851562 -0.45820313 0.71984375 0 0 Z " fill="#151514" transform="translate(229,208)"/>
<path d="M0 0 C1.32 0 2.64 0 4 0 C5.125 3.75 5.125 3.75 4 6 C0.76902047 6.86159454 -1.22486274 7.30597523 -4.375 6.0625 C-4.91125 5.711875 -5.4475 5.36125 -6 5 C-6 4.34 -6 3.68 -6 3 C-3.69 3.33 -1.38 3.66 1 4 C0.67 2.68 0.34 1.36 0 0 Z " fill="#EADAD8" transform="translate(639,546)"/>
<path d="M0 0 C2.20516659 0.49003702 4.21515143 1.08722355 6.3125 1.9375 C9.48699869 3.19253437 12.71013905 4.09690092 16 5 C16 5.66 16 6.32 16 7 C14.06077578 6.54901762 12.12366406 6.08894441 10.1875 5.625 C9.10855469 5.36976563 8.02960938 5.11453125 6.91796875 4.8515625 C4 4 4 4 1 2 C0.67 1.34 0.34 0.68 0 0 Z " fill="#782A2A" transform="translate(497,504)"/>
<path d="M0 0 C0.99 0.33 1.98 0.66 3 1 C2.01 1.495 2.01 1.495 1 2 C1.33 3.65 1.66 5.3 2 7 C1.360625 7.12375 0.72125 7.2475 0.0625 7.375 C-0.9584375 7.684375 -0.9584375 7.684375 -2 8 C-2.33 8.66 -2.66 9.32 -3 10 C-3.66 9.67 -4.32 9.34 -5 9 C-3.7508258 5.54074837 -2.32472205 2.85306797 0 0 Z " fill="#1B1B19" transform="translate(317,65)"/>
<path d="M0 0 C6.6 0 13.2 0 20 0 C20 0.33 20 0.66 20 1 C14.39 1 8.78 1 3 1 C3.33 2.32 3.66 3.64 4 5 C3.01 5.495 3.01 5.495 2 6 C1.34 4.02 0.68 2.04 0 0 Z " fill="#691C1F" transform="translate(412,412)"/>
<path d="M0 0 C2.3828125 0.2421875 2.3828125 0.2421875 5.125 0.875 C6.03507813 1.07867188 6.94515625 1.28234375 7.8828125 1.4921875 C8.58148437 1.65976562 9.28015625 1.82734375 10 2 C9.360625 2.12375 8.72125 2.2475 8.0625 2.375 C7.381875 2.58125 6.70125 2.7875 6 3 C5.67 3.66 5.34 4.32 5 5 C4.01 5 3.02 5 2 5 C2 4.34 2 3.68 2 3 C0.68 2.67 -0.64 2.34 -2 2 C-1.34 1.34 -0.68 0.68 0 0 Z " fill="#F9E7E5" transform="translate(596,538)"/>
<path d="M0 0 C2.47141532 2.1490568 3.69898137 3.68879509 4 7 C3.0625 9.25 3.0625 9.25 2 11 C2 10.01 2 9.02 2 8 C1.01 7.67 0.02 7.34 -1 7 C-1.04254356 5.00045254 -1.04080783 2.99958364 -1 1 C-0.67 0.67 -0.34 0.34 0 0 Z " fill="#7D2121" transform="translate(594,464)"/>
<path d="M0 0 C0.66 0 1.32 0 2 0 C4.28521123 3.19929572 5.68031589 6.05722928 6 10 C5.34 10.66 4.68 11.32 4 12 C2.35 8.37 0.7 4.74 -1 1 C-0.67 0.67 -0.34 0.34 0 0 Z " fill="#F1DFD7" transform="translate(569,412)"/>
<path d="M0 0 C0.99 0.33 1.98 0.66 3 1 C2.01 2.98 1.02 4.96 0 7 C-0.66 7 -1.32 7 -2 7 C-2 7.66 -2 8.32 -2 9 C-2.66 9 -3.32 9 -4 9 C-4.33 9.66 -4.66 10.32 -5 11 C-4.46884894 6.48521602 -2.63379708 3.65333143 0 0 Z " fill="#121212" transform="translate(308,327)"/>
<path d="M0 0 C2.72426311 2.35277269 3.8141763 4.62496331 5 8 C3.68 8 2.36 8 1 8 C-0.75 5.5 -0.75 5.5 -2 3 C-1.34 2.01 -0.68 1.02 0 0 Z " fill="#ECECEC" transform="translate(338,215)"/>
<path d="M0 0 C0.66 0.66 1.32 1.32 2 2 C0.68 4.31 -0.64 6.62 -2 9 C-2.99 8.34 -3.98 7.68 -5 7 C-4.34 7 -3.68 7 -3 7 C-3.33 5.35 -3.66 3.7 -4 2 C-2.68 1.34 -1.36 0.68 0 0 Z " fill="#ECECEA" transform="translate(319,57)"/>
<path d="M0 0 C1.82421875 0.19140625 1.82421875 0.19140625 4 1 C5.51953125 3.21484375 5.51953125 3.21484375 6.8125 5.9375 C7.25207031 6.83339844 7.69164062 7.72929687 8.14453125 8.65234375 C8.42683594 9.42707031 8.70914062 10.20179688 9 11 C8.67 11.66 8.34 12.32 8 13 C6.66388095 11.0226631 5.33100742 9.04327287 4 7.0625 C3.6184375 6.49853516 3.236875 5.93457031 2.84375 5.35351562 C0 1.11328125 0 1.11328125 0 0 Z " fill="#6F1E1D" transform="translate(427,438)"/>
<path d="M0 0 C1.32 0.33 2.64 0.66 4 1 C4.33 2.65 4.66 4.3 5 6 C5.66 6 6.32 6 7 6 C7.33 7.32 7.66 8.64 8 10 C7.01 10.495 7.01 10.495 6 11 C4.99735282 9.35577799 3.99794896 7.70957779 3 6.0625 C2.443125 5.14597656 1.88625 4.22945313 1.3125 3.28515625 C0 1 0 1 0 0 Z " fill="#752926" transform="translate(415,418)"/>
<path d="M0 0 C0.66 1.32 1.32 2.64 2 4 C0.02 6.31 -1.96 8.62 -4 11 C-4.66 10.67 -5.32 10.34 -6 10 C-4.02 6.7 -2.04 3.4 0 0 Z " fill="#E2E2E2" transform="translate(312,257)"/>
<path d="M0 0 C2.475 0.99 2.475 0.99 5 2 C5 2.66 5 3.32 5 4 C4.34 4 3.68 4 3 4 C2.67 4.66 2.34 5.32 2 6 C0.68 5.67 -0.64 5.34 -2 5 C-1.34 3.35 -0.68 1.7 0 0 Z " fill="#0E0E0E" transform="translate(387,113)"/>
<path d="M0 0 C0.66 0.33 1.32 0.66 2 1 C0.33248852 4.94139078 -2.22710649 7.7892812 -5 11 C-5.33 10.34 -5.66 9.68 -6 9 C-4.02 6.03 -2.04 3.06 0 0 Z " fill="#E3E3E2" transform="translate(226,397)"/>
<path d="M0 0 C0.33 0.99 0.66 1.98 1 3 C0.01 3.66 -0.98 4.32 -2 5 C-1.125 1.125 -1.125 1.125 0 0 Z M-3 5 C-2.67 5.66 -2.34 6.32 -2 7 C-1.01 7.33 -0.02 7.66 1 8 C-1.35953094 10.35953094 -2.77895617 10.49141413 -6 11 C-4.125 6.125 -4.125 6.125 -3 5 Z " fill="#E1E1E1" transform="translate(638,365)"/>
<path d="M0 0 C0.66 0.99 1.32 1.98 2 3 C1.06810009 6.10633303 -0.19193628 8.28790442 -2 11 C-2.66 11 -3.32 11 -4 11 C-3.34 8.36 -2.68 5.72 -2 3 C-1.34 3 -0.68 3 0 3 C0 2.01 0 1.02 0 0 Z " fill="#EEEEEC" transform="translate(157,320)"/>
<path d="M0 0 C1.32 0 2.64 0 4 0 C4.66 1.65 5.32 3.3 6 5 C4.6875 6.5 4.6875 6.5 3 8 C2.01 8 1.02 8 0 8 C0.33 7.38125 0.66 6.7625 1 6.125 C2.14193235 4.08981656 2.14193235 4.08981656 2 2 C1.34 2 0.68 2 0 2 C0 1.34 0 0.68 0 0 Z " fill="#0B0B0B" transform="translate(424,175)"/>
<path d="M0 0 C1.32 0.33 2.64 0.66 4 1 C4.12375 1.5775 4.2475 2.155 4.375 2.75 C4.91843033 5.03560051 4.91843033 5.03560051 6.125 7.0625 C7 9 7 9 6 12 C4.02 8.04 2.04 4.08 0 0 Z " fill="#F5DCD9" transform="translate(631,532)"/>
<path d="M0 0 C1.98 0.99 1.98 0.99 4 2 C4 2.99 4 3.98 4 5 C4.66 5 5.32 5 6 5 C6.33 6.65 6.66 8.3 7 10 C6.34 10 5.68 10 5 10 C3.7109375 8.3203125 3.7109375 8.3203125 2.375 6.125 C1.92898438 5.40570312 1.48296875 4.68640625 1.0234375 3.9453125 C0 2 0 2 0 0 Z " fill="#F8E0DD" transform="translate(624,519)"/>
<path d="M0 0 C0.99 0.33 1.98 0.66 3 1 C1.02 3.97 1.02 3.97 -1 7 C-2.32 6.34 -3.64 5.68 -5 5 C-4.01 4.67 -3.02 4.34 -2 4 C-0.79117904 1.99983534 -0.79117904 1.99983534 0 0 Z " fill="#101010" transform="translate(218,405)"/>
<path d="M0 0 C1.61949011 2.57213134 2.04408751 3.67669159 1.625 6.75 C1.41875 7.4925 1.2125 8.235 1 9 C-1.25245881 6.31158141 -2.88213958 4.35358125 -4 1 C-2.68 1.33 -1.36 1.66 0 2 C0 1.34 0 0.68 0 0 Z " fill="#EBEBE9" transform="translate(468,234)"/>
<path d="M0 0 C0.66 0.33 1.32 0.66 2 1 C-0.97 5.95 -0.97 5.95 -4 11 C-5.06544301 7.80367098 -5.19353531 7.02974348 -4 4 C-1.9375 1.75 -1.9375 1.75 0 0 Z " fill="#E5E5E3" transform="translate(238,191)"/>
<path d="M0 0 C8.19256018 -0.4726477 8.19256018 -0.4726477 11.5625 1.5 C12.036875 1.995 12.51125 2.49 13 3 C9.44757118 4.18414294 8.30169438 3.69535532 4.8125 2.5625 C3.91144531 2.27503906 3.01039063 1.98757813 2.08203125 1.69140625 C1.39496094 1.46324219 0.70789063 1.23507812 0 1 C0 0.67 0 0.34 0 0 Z " fill="#7B322C" transform="translate(513,511)"/>
<path d="M0 0 C1.98 0.495 1.98 0.495 4 1 C2.92598892 3.91517292 2.22189824 5.77810176 0 8 C-1.125 2.25 -1.125 2.25 0 0 Z " fill="#E9E9E7" transform="translate(203,243)"/>
<path d="M0 0 C3.5 0.25 3.5 0.25 5.5 2.25 C4.84 2.25 4.18 2.25 3.5 2.25 C3.5 2.91 3.5 3.57 3.5 4.25 C-0.955 3.26 -0.955 3.26 -5.5 2.25 C-3.5 0.25 -3.5 0.25 0 0 Z " fill="#7D342E" transform="translate(629.5,544.75)"/>
<path d="M0 0 C0.66 0.33 1.32 0.66 2 1 C2 1.99 2 2.98 2 4 C3.65 4.33 5.3 4.66 7 5 C6.01 6.485 6.01 6.485 5 8 C2 7 2 7 0.3125 3.9375 C-0.120625 2.968125 -0.55375 1.99875 -1 1 C-0.67 0.67 -0.34 0.34 0 0 Z " fill="#7C2627" transform="translate(423,429)"/>
<path d="M0 0 C1.32 0.66 2.64 1.32 4 2 C3.01 3.98 2.02 5.96 1 8 C0.67 7.34 0.34 6.68 0 6 C-0.66 5.67 -1.32 5.34 -2 5 C-1.34 4.34 -0.68 3.68 0 3 C0 2.01 0 1.02 0 0 Z " fill="#ECECEA" transform="translate(101,409)"/>
<path d="M0 0 C0.33 0 0.66 0 1 0 C1.25 5.625 1.25 5.625 -1 9 C-1.99 8.67 -2.98 8.34 -4 8 C-4 6 -4 6 -2 4 C-1.30251417 2.68252676 -0.63040043 1.35085807 0 0 Z " fill="#0C0C0C" transform="translate(237,373)"/>
<path d="M0 0 C0.66 1.32 1.32 2.64 2 4 C1.01 4.33 0.02 4.66 -1 5 C-2.66710346 6.49985609 -2.66710346 6.49985609 -4 8 C-3.6875 5.125 -3.6875 5.125 -3 2 C-2.01 1.34 -1.02 0.68 0 0 Z " fill="#F7F7F5" transform="translate(278,319)"/>
<path d="M0 0 C0.66 0.66 1.32 1.32 2 2 C1.34 2.66 0.68 3.32 0 4 C0 4.99 0 5.98 0 7 C-0.99 7.66 -1.98 8.32 -3 9 C-3.33 8.01 -3.66 7.02 -4 6 C-2.0625 2.8125 -2.0625 2.8125 0 0 Z " fill="#131312" transform="translate(235,199)"/>
<path d="M0 0 C0.66 0.33 1.32 0.66 2 1 C0.7260411 3.03833424 -0.61061923 5.03852126 -2 7 C-2.66 7 -3.32 7 -4 7 C-4.33 5.68 -4.66 4.36 -5 3 C-2.625 1.4375 -2.625 1.4375 0 0 Z " fill="#EEEEEC" transform="translate(334,34)"/>
<path d="M0 0 C2.32472205 2.85306797 3.7508258 5.54074837 5 9 C4.01 9.495 4.01 9.495 3 10 C3 9.01 3 8.02 3 7 C2.01 6.67 1.02 6.34 0 6 C-0.38218767 4.34385343 -0.71395102 2.67542976 -1 1 C-0.67 0.67 -0.34 0.34 0 0 Z " fill="#7A2D30" transform="translate(589,454)"/>
<path d="M0 0 C0.66 0.33 1.32 0.66 2 1 C0.35 3.64 -1.3 6.28 -3 9 C-3.99 8.34 -4.98 7.68 -6 7 C-5.34 6.34 -4.68 5.68 -4 5 C-2.65705519 3.34106818 -1.32255312 1.67523395 0 0 Z " fill="#ECECEA" transform="translate(150,335)"/>
<path d="M0 0 C0.66 1.32 1.32 2.64 2 4 C1.01 4.495 1.01 4.495 0 5 C0 5.66 0 6.32 0 7 C-2.5 8.625 -2.5 8.625 -5 10 C-3.66511872 6.40608886 -2.03977277 3.24509304 0 0 Z " fill="#E7E7E7" transform="translate(283,304)"/>
<path d="M0 0 C0.99 0.66 1.98 1.32 3 2 C1.02 4.97 1.02 4.97 -1 8 C-1.99 7.34 -2.98 6.68 -4 6 C-2.68 4.02 -1.36 2.04 0 0 Z " fill="#E9E9E7" transform="translate(182,280)"/>
<path d="M0 0 C0.66 1.32 1.32 2.64 2 4 C0.68 5.65 -0.64 7.3 -2 9 C-2.6875 7.3125 -2.6875 7.3125 -3 5 C-1.5625 2.25 -1.5625 2.25 0 0 Z " fill="#0B0B0B" transform="translate(301,269)"/>
<path d="M0 0 C0.99 0 1.98 0 3 0 C3.33 1.98 3.66 3.96 4 6 C2.35 6 0.7 6 -1 6 C-0.67 4.02 -0.34 2.04 0 0 Z " fill="#090909" transform="translate(363,249)"/>
<path d="M0 0 C0.66 0.33 1.32 0.66 2 1 C1.50168276 4.68754757 0.89932357 6.60490662 -2 9 C-2.33 8.01 -2.66 7.02 -3 6 C-2.34 5.34 -1.68 4.68 -1 4 C-0.3574765 1.93125966 -0.3574765 1.93125966 0 0 Z " fill="#791716" transform="translate(597,471)"/>
<path d="M0 0 C1.32 1.32 2.64 2.64 4 4 C2.625 5.5 2.625 5.5 1 7 C0.34 7 -0.32 7 -1 7 C-1.33 6.01 -1.66 5.02 -2 4 C-1.34 3.34 -0.68 2.68 0 2 C0 1.34 0 0.68 0 0 Z " fill="#F0F0EE" transform="translate(253,160)"/>
<path d="M0 0 C2.7972908 2.06756277 3.02692273 3.14440371 3.6875 6.6875 C3.790625 7.780625 3.89375 8.87375 4 10 C2 9 2 9 0.875 6.6875 C0 4 0 4 0 0 Z " fill="#721F1E" transform="translate(624,521)"/>
<path d="M0 0 C0.66 0.66 1.32 1.32 2 2 C2.99 2 3.98 2 5 2 C5.33 3.32 5.66 4.64 6 6 C5.01 6.495 5.01 6.495 4 7 C4 6.34 4 5.68 4 5 C2.68 4.67 1.36 4.34 0 4 C0 2.68 0 1.36 0 0 Z " fill="#741410" transform="translate(603,487)"/>
<path d="M0 0 C1.89213369 2.38573379 3.02391783 4.07175348 4 7 C3.01 7.495 3.01 7.495 2 8 C1.67 7.34 1.34 6.68 1 6 C0.01 6 -0.98 6 -2 6 C-1.34 4.02 -0.68 2.04 0 0 Z " fill="#7D2B29" transform="translate(599,473)"/>
<path d="M0 0 C2.25245881 2.68841859 3.88213958 4.64641875 5 8 C2.00675737 6.9024777 1.15389099 6.32317108 -0.25 3.375 C-0.4975 2.59125 -0.745 1.8075 -1 1 C-0.67 0.67 -0.34 0.34 0 0 Z " fill="#F6E0D9" transform="translate(442,463)"/>
<path d="M0 0 C0.99 0 1.98 0 3 0 C4.5625 2.8125 4.5625 2.8125 6 6 C5.67 6.99 5.34 7.98 5 9 C2.67527795 6.14693203 1.2491742 3.45925163 0 0 Z " fill="#FCE1E4" transform="translate(589,453)"/>
<path d="M0 0 C1.9375 0.75 1.9375 0.75 4 2 C4.875 4 4.875 4 5 6 C4.34 6.66 3.68 7.32 3 8 C0 2.25 0 2.25 0 0 Z " fill="#FAE5E7" transform="translate(575,425)"/>
<path d="M0 0 C2 3 2 3 2 5 C1.01 5.33 0.02 5.66 -1 6 C-2.37195574 7.29355827 -3.71182656 8.62298702 -5 10 C-3.66511872 6.40608886 -2.03977277 3.24509304 0 0 Z " fill="#E6E6E6" transform="translate(649,347)"/>
<path d="M0 0 C2.31 0.33 4.62 0.66 7 1 C7 1.99 7 2.98 7 4 C4.36 3.34 1.72 2.68 -1 2 C-0.67 1.34 -0.34 0.68 0 0 Z " fill="#72282A" transform="translate(483,500)"/>
<path d="M0 0 C3.08089673 2.77280706 4.68775452 5.06326356 6 9 C2.56225537 7.85408512 1.82586841 7.04311402 0 4 C0 2.68 0 1.36 0 0 Z " fill="#F4DDDC" transform="translate(448,473)"/>
<path d="M0 0 C2.72426311 2.35277269 3.8141763 4.62496331 5 8 C4.01 8 3.02 8 2 8 C1.34 5.36 0.68 2.72 0 0 Z " fill="#FAE5E8" transform="translate(411,413)"/>
<path d="M0 0 C1.32 0.33 2.64 0.66 4 1 C4 1.66 4 2.32 4 3 C4.66 3 5.32 3 6 3 C5.67 3.99 5.34 4.98 5 6 C4.01 5.67 3.02 5.34 2 5 C0.8125 2.4375 0.8125 2.4375 0 0 Z " fill="#E7E7E5" transform="translate(430,179)"/>
<path d="M0 0 C2.475 0.99 2.475 0.99 5 2 C4.34 3.32 3.68 4.64 3 6 C2.01 5.34 1.02 4.68 0 4 C0 2.68 0 1.36 0 0 Z " fill="#FCF4EF" transform="translate(630,527)"/>
<path d="M0 0 C0.99 0 1.98 0 3 0 C3 1.65 3 3.3 3 5 C1.68 4.67 0.36 4.34 -1 4 C-1 1 -1 1 0 0 Z " fill="#7A181A" transform="translate(586,453)"/>
<path d="M0 0 C0.66 1.32 1.32 2.64 2 4 C0.68 4.99 -0.64 5.98 -2 7 C-2.66 6.67 -3.32 6.34 -4 6 C-2.68 4.02 -1.36 2.04 0 0 Z " fill="#161615" transform="translate(137,359)"/>
</svg>
